<?xml version="1.0" encoding="UTF-8"?>
<svg width="1140px" height="118px" viewBox="0 0 1140 118" version="1.1" xmlns="http://www.w3.org/2000/svg" xmlns:xlink="http://www.w3.org/1999/xlink">
    <title>TITUS GAHISSY</title>
    <g id="Page-1" stroke="none" stroke-width="1" fill="none" fill-rule="evenodd">
        <g id="Artboard" transform="translate(-130, -295)" fill="#000000" fill-rule="nonzero">
            <g id="TITUS-GAHISSY" transform="translate(130.9515, 295.089)">
                <polygon id="Path" points="-2.84217094e-14 12.561 34.98 12.561 34.98 115.911 46.428 115.911 46.428 12.561 81.567 12.561 81.567 2.067 -2.84217094e-14 2.067"></polygon>
                <polygon id="Path" points="112.731 2.067 101.283 2.067 101.283 115.911 112.731 115.911"></polygon>
                <polygon id="Path" points="132.447 12.561 167.427 12.561 167.427 115.911 178.875 115.911 178.875 12.561 214.014 12.561 214.014 2.067 132.447 2.067"></polygon>
                <path d="M232.935,76.32 C232.935,102.237 248.835,117.819 275.229,117.819 C301.146,117.819 317.046,102.078 317.046,76.32 L317.046,2.067 L305.598,2.067 L305.598,75.843 C305.598,95.559 294.627,106.689 275.229,106.689 C255.354,106.689 244.383,95.877 244.383,75.843 L244.383,2.067 L232.935,2.067 L232.935,76.32 Z" id="Path"></path>
                <path d="M341.055,31.641 C341.055,47.223 350.436,57.399 368.244,61.692 L387.483,66.462 C399.726,69.324 405.45,76.002 405.45,86.178 C405.45,99.216 394.797,107.325 378.102,107.325 C362.52,107.325 352.026,99.534 351.39,87.609 L339.624,87.609 C341.055,106.212 356.001,117.819 378.102,117.819 C401.634,117.819 416.898,105.258 416.898,85.542 C416.898,70.119 407.676,59.943 389.868,55.65 L370.311,50.88 C358.386,47.859 352.503,41.499 352.503,31.482 C352.503,18.603 362.997,10.335 379.056,10.335 C393.366,10.335 402.111,17.649 403.383,30.528 L414.99,30.528 C413.241,11.448 399.726,-5.68434189e-14 379.215,-5.68434189e-14 C356.319,-5.68434189e-14 341.055,12.561 341.055,31.641 Z" id="Path"></path>
                <path d="M537.102,10.971 C553.797,10.971 567.153,18.921 571.923,34.503 L584.325,34.503 C579.873,13.833 561.27,0.159 537.261,0.159 C504.666,0.159 482.406,24.645 482.406,59.466 C482.406,94.605 504.666,117.819 536.943,117.819 C555.387,117.819 569.697,109.233 575.739,97.944 L576.852,116.07 L585.915,116.07 L585.915,54.378 L533.922,54.378 L533.922,64.554 L575.103,64.554 L575.103,70.437 C575.103,97.785 556.5,107.007 537.42,107.007 C511.821,107.007 494.331,89.04 494.331,59.466 C494.331,30.369 510.867,10.971 537.102,10.971 Z" id="Path"></path>
                <path d="M612.627,115.911 L623.757,85.701 L676.227,85.701 L687.357,115.911 L699.282,115.911 L656.988,2.067 L642.837,2.067 L601.02,115.911 L612.627,115.911 Z M648.402,18.126 C649.038,16.536 649.674,14.469 649.833,13.515 C649.992,14.628 650.787,16.536 651.264,18.126 L672.57,75.684 L627.255,75.684 L648.402,18.126 Z" id="Shape"></path>
                <polygon id="Path" points="730.605 115.911 730.605 63.441 792.138 63.441 792.138 115.911 803.427 115.911 803.427 2.067 792.138 2.067 792.138 52.788 730.605 52.788 730.605 2.067 719.157 2.067 719.157 115.911"></polygon>
                <polygon id="Path" points="846.675 2.067 835.227 2.067 835.227 115.911 846.675 115.911"></polygon>
                <path d="M871.479,31.641 C871.479,47.223 880.86,57.399 898.668,61.692 L917.907,66.462 C930.15,69.324 935.874,76.002 935.874,86.178 C935.874,99.216 925.221,107.325 908.526,107.325 C892.944,107.325 882.45,99.534 881.814,87.609 L870.048,87.609 C871.479,106.212 886.425,117.819 908.526,117.819 C932.058,117.819 947.322,105.258 947.322,85.542 C947.322,70.119 938.1,59.943 920.292,55.65 L900.735,50.88 C888.81,47.859 882.927,41.499 882.927,31.482 C882.927,18.603 893.421,10.335 909.48,10.335 C923.79,10.335 932.535,17.649 933.807,30.528 L945.414,30.528 C943.665,11.448 930.15,-5.68434189e-14 909.639,-5.68434189e-14 C886.743,-5.68434189e-14 871.479,12.561 871.479,31.641 Z" id="Path"></path>
                <path d="M965.289,31.641 C965.289,47.223 974.67,57.399 992.478,61.692 L1011.717,66.462 C1023.96,69.324 1029.684,76.002 1029.684,86.178 C1029.684,99.216 1019.031,107.325 1002.336,107.325 C986.754,107.325 976.26,99.534 975.624,87.609 L963.858,87.609 C965.289,106.212 980.235,117.819 1002.336,117.819 C1025.868,117.819 1041.132,105.258 1041.132,85.542 C1041.132,70.119 1031.91,59.943 1014.102,55.65 L994.545,50.88 C982.62,47.859 976.737,41.499 976.737,31.482 C976.737,18.603 987.231,10.335 1003.29,10.335 C1017.6,10.335 1026.345,17.649 1027.617,30.528 L1039.224,30.528 C1037.475,11.448 1023.96,-5.68434189e-14 1003.449,-5.68434189e-14 C980.553,-5.68434189e-14 965.289,12.561 965.289,31.641 Z" id="Path"></path>
                <path d="M1088.832,68.37 L1088.832,115.911 L1100.28,115.911 L1100.28,68.37 L1138.44,2.067 L1125.879,2.067 L1098.054,51.198 C1095.987,55.173 1095.987,55.173 1094.556,58.035 C1093.443,55.491 1092.489,53.583 1091.217,51.198 L1063.074,2.067 L1050.195,2.067 L1088.832,68.37 Z" id="Path"></path>
            </g>
        </g>
    </g>
</svg>